<svg width="184" height="40" viewBox="0 0 184 40" fill="none" xmlns="http://www.w3.org/2000/svg" role="img" aria-labelledby="title desc">
  <title id="title">ScanAI</title>
  <desc id="desc">Light ScanAI wordmark with scanner monogram.</desc>
  <rect width="40" height="40" rx="6" fill="#FFFFFF"/>
  <path d="M12 13.5H24.5C27 13.5 29 15.5 29 18C29 20.5 27 22.5 24.5 22.5H15.5C13 22.5 11 24.5 11 27C11 29.5 13 31.5 15.5 31.5H28" stroke="#090A0A" stroke-width="3.2" stroke-linecap="square" stroke-linejoin="round"/>
  <path d="M10 8.5H30" stroke="#4FA5B6" stroke-width="3.2" stroke-linecap="square"/>
  <path d="M29.5 8.5V15" stroke="#4FA5B6" stroke-width="3.2" stroke-linecap="square"/>
  <rect x="26" y="26" width="5" height="5" fill="#EF5A2A"/>
  <path d="M62.52 29.36C57.92 29.36 54.68 27.16 54.32 23.52H59.16C59.52 25.04 60.76 25.96 62.56 25.96C64.28 25.96 65.28 25.2 65.28 24.04C65.28 20.56 54.88 23.04 54.88 16.12C54.88 12.92 57.64 10.64 62.08 10.64C66.36 10.64 69.36 12.8 69.8 16.28H65.04C64.76 14.92 63.68 14.04 62.08 14.04C60.48 14.04 59.56 14.72 59.56 15.84C59.56 19.16 69.96 16.84 69.96 23.68C69.96 27.04 67.12 29.36 62.52 29.36ZM80.84 29.36C75.4 29.36 71.52 25.44 71.52 20C71.52 14.56 75.4 10.64 80.84 10.64C85.56 10.64 89 13.4 89.72 17.72H84.96C84.44 15.88 82.96 14.72 80.84 14.72C78.04 14.72 76.24 16.8 76.24 20C76.24 23.2 78.04 25.28 80.84 25.28C83 25.28 84.44 24.2 84.96 22.36H89.72C89 26.6 85.56 29.36 80.84 29.36ZM98.32 29.36C94.64 29.36 92.24 27.28 92.24 24.08C92.24 20.68 94.92 18.76 99.52 18.76H103.92V17.72C103.92 15.8 102.72 14.68 100.64 14.68C98.72 14.68 97.52 15.6 97.2 17.08H92.76C93.16 13.16 96.32 10.64 100.84 10.64C105.64 10.64 108.48 13.32 108.48 17.84V29H104.12V26.56C103.08 28.32 101.04 29.36 98.32 29.36ZM99.72 25.96C102.2 25.96 103.92 24.44 103.92 22.28V21.68H100.08C97.84 21.68 96.8 22.44 96.8 23.84C96.8 25.16 97.88 25.96 99.72 25.96ZM111.96 29V11H116.44V13.56C117.6 11.72 119.64 10.64 122.12 10.64C126.16 10.64 128.72 13.36 128.72 17.88V29H124.16V18.6C124.16 16.2 122.88 14.84 120.68 14.84C118.2 14.84 116.52 16.56 116.52 19.12V29H111.96ZM129.8 29L136.44 11H142.08L148.72 29H143.84L142.48 25.12H136L134.64 29H129.8ZM137.2 21.44H141.28L139.24 15.52L137.2 21.44ZM151.2 29V11H155.92V29H151.2Z" fill="#FFFFFF"/>
</svg>
